<mxfile host="app.diagrams.net" modified="2023-06-29T15:43:22.373Z" agent="Mozilla/5.0 (Windows NT 10.0; Win64; x64) AppleWebKit/537.36 (KHTML, like Gecko) Chrome/114.0.0.0 Safari/537.36" etag="ZZ--CbgsoZbld4cgm9Mk" version="21.5.0" type="device">
  <diagram name="Page-1" id="jBH96hN2cqyDH_TdCHFg">
    <mxGraphModel dx="1235" dy="834" grid="1" gridSize="10" guides="1" tooltips="1" connect="1" arrows="1" fold="1" page="1" pageScale="1" pageWidth="1200" pageHeight="1600" math="0" shadow="0">
      <root>
        <mxCell id="0" />
        <mxCell id="1" parent="0" />
        <mxCell id="Unxo0jtp3hiDSAeCpCOh-197" style="edgeStyle=orthogonalEdgeStyle;rounded=0;orthogonalLoop=1;jettySize=auto;html=1;entryX=0.5;entryY=0;entryDx=0;entryDy=0;" edge="1" parent="1" source="Unxo0jtp3hiDSAeCpCOh-198" target="Unxo0jtp3hiDSAeCpCOh-200">
          <mxGeometry relative="1" as="geometry" />
        </mxCell>
        <mxCell id="Unxo0jtp3hiDSAeCpCOh-198" value="&lt;b style=&quot;font-size: 20px;&quot;&gt;Input&amp;nbsp;&lt;/b&gt;&lt;br style=&quot;font-size: 20px;&quot;&gt;187x1" style="rounded=1;whiteSpace=wrap;html=1;fontSize=20;rotation=-90;" vertex="1" parent="1">
          <mxGeometry x="100" y="260" width="220" height="60" as="geometry" />
        </mxCell>
        <mxCell id="Unxo0jtp3hiDSAeCpCOh-199" style="edgeStyle=orthogonalEdgeStyle;rounded=0;orthogonalLoop=1;jettySize=auto;html=1;" edge="1" parent="1" source="Unxo0jtp3hiDSAeCpCOh-200" target="Unxo0jtp3hiDSAeCpCOh-204">
          <mxGeometry relative="1" as="geometry" />
        </mxCell>
        <mxCell id="Unxo0jtp3hiDSAeCpCOh-200" value="&lt;b&gt;Conv1D&amp;nbsp;&lt;br&gt;&lt;/b&gt;" style="rounded=1;whiteSpace=wrap;html=1;fontSize=20;rotation=-90;" vertex="1" parent="1">
          <mxGeometry x="190" y="260" width="220" height="60" as="geometry" />
        </mxCell>
        <mxCell id="Unxo0jtp3hiDSAeCpCOh-201" value="&lt;b&gt;&lt;font style=&quot;font-size: 21px;&quot;&gt;3x&lt;/font&gt;&lt;/b&gt;" style="text;html=1;align=center;verticalAlign=middle;resizable=0;points=[];autosize=1;strokeColor=none;fillColor=none;rotation=-90;" vertex="1" parent="1">
          <mxGeometry x="275" y="400" width="50" height="40" as="geometry" />
        </mxCell>
        <mxCell id="Unxo0jtp3hiDSAeCpCOh-296" style="edgeStyle=orthogonalEdgeStyle;rounded=0;orthogonalLoop=1;jettySize=auto;html=1;entryX=0.5;entryY=0;entryDx=0;entryDy=0;" edge="1" parent="1" source="Unxo0jtp3hiDSAeCpCOh-204" target="Unxo0jtp3hiDSAeCpCOh-293">
          <mxGeometry relative="1" as="geometry" />
        </mxCell>
        <mxCell id="Unxo0jtp3hiDSAeCpCOh-301" style="edgeStyle=orthogonalEdgeStyle;rounded=0;orthogonalLoop=1;jettySize=auto;html=1;entryX=0;entryY=0.5;entryDx=0;entryDy=0;" edge="1" parent="1" source="Unxo0jtp3hiDSAeCpCOh-204" target="Unxo0jtp3hiDSAeCpCOh-291">
          <mxGeometry relative="1" as="geometry">
            <Array as="points">
              <mxPoint x="390" y="411" />
            </Array>
          </mxGeometry>
        </mxCell>
        <mxCell id="Unxo0jtp3hiDSAeCpCOh-303" style="edgeStyle=orthogonalEdgeStyle;rounded=0;orthogonalLoop=1;jettySize=auto;html=1;entryX=0;entryY=0.5;entryDx=0;entryDy=0;" edge="1" parent="1" source="Unxo0jtp3hiDSAeCpCOh-204" target="Unxo0jtp3hiDSAeCpCOh-288">
          <mxGeometry relative="1" as="geometry">
            <Array as="points">
              <mxPoint x="390" y="160" />
            </Array>
          </mxGeometry>
        </mxCell>
        <mxCell id="Unxo0jtp3hiDSAeCpCOh-204" value="&lt;b&gt;Max-pooling&lt;br&gt;&lt;/b&gt;" style="rounded=1;whiteSpace=wrap;html=1;fontSize=20;rotation=-90;" vertex="1" parent="1">
          <mxGeometry x="280" y="260" width="220" height="60" as="geometry" />
        </mxCell>
        <mxCell id="Unxo0jtp3hiDSAeCpCOh-238" style="edgeStyle=orthogonalEdgeStyle;rounded=0;orthogonalLoop=1;jettySize=auto;html=1;entryX=0.5;entryY=0;entryDx=0;entryDy=0;" edge="1" parent="1" source="Unxo0jtp3hiDSAeCpCOh-239" target="Unxo0jtp3hiDSAeCpCOh-241">
          <mxGeometry relative="1" as="geometry" />
        </mxCell>
        <mxCell id="Unxo0jtp3hiDSAeCpCOh-239" value="&lt;b&gt;Dropout (0.5)&lt;br&gt;&lt;/b&gt;" style="rounded=1;whiteSpace=wrap;html=1;fontSize=20;rotation=-90;" vertex="1" parent="1">
          <mxGeometry x="1010" y="240" width="220" height="60" as="geometry" />
        </mxCell>
        <mxCell id="Unxo0jtp3hiDSAeCpCOh-240" style="edgeStyle=orthogonalEdgeStyle;rounded=0;orthogonalLoop=1;jettySize=auto;html=1;" edge="1" parent="1" source="Unxo0jtp3hiDSAeCpCOh-241" target="Unxo0jtp3hiDSAeCpCOh-242">
          <mxGeometry relative="1" as="geometry" />
        </mxCell>
        <mxCell id="Unxo0jtp3hiDSAeCpCOh-241" value="&lt;b&gt;Flatten&lt;br&gt;&lt;/b&gt;" style="rounded=1;whiteSpace=wrap;html=1;fontSize=20;rotation=-90;" vertex="1" parent="1">
          <mxGeometry x="1100" y="240" width="220" height="60" as="geometry" />
        </mxCell>
        <mxCell id="Unxo0jtp3hiDSAeCpCOh-242" value="&lt;b&gt;Dense (5 class)&lt;br&gt;&lt;/b&gt;" style="rounded=1;whiteSpace=wrap;html=1;fontSize=20;rotation=-90;" vertex="1" parent="1">
          <mxGeometry x="1190" y="240" width="220" height="60" as="geometry" />
        </mxCell>
        <mxCell id="Unxo0jtp3hiDSAeCpCOh-243" value="" style="shape=curlyBracket;whiteSpace=wrap;html=1;rounded=1;labelPosition=left;verticalLabelPosition=middle;align=right;verticalAlign=middle;rotation=-90;size=0.5;fontStyle=0;fontSize=22;strokeWidth=3;" vertex="1" parent="1">
          <mxGeometry x="1197.5" y="297.5" width="20" height="265" as="geometry" />
        </mxCell>
        <mxCell id="Unxo0jtp3hiDSAeCpCOh-244" value="&lt;b&gt;&lt;font style=&quot;font-size: 16px;&quot;&gt;Classification&lt;/font&gt;&lt;/b&gt;" style="text;html=1;align=center;verticalAlign=middle;resizable=0;points=[];autosize=1;strokeColor=none;fillColor=none;" vertex="1" parent="1">
          <mxGeometry x="1145" y="441.25" width="130" height="30" as="geometry" />
        </mxCell>
        <mxCell id="Unxo0jtp3hiDSAeCpCOh-245" value="" style="shape=curlyBracket;whiteSpace=wrap;html=1;rounded=1;labelPosition=left;verticalLabelPosition=middle;align=right;verticalAlign=middle;rotation=-90;size=0.5;fontStyle=0;fontSize=22;strokeWidth=3;" vertex="1" parent="1">
          <mxGeometry x="700" y="297.5" width="20" height="370" as="geometry" />
        </mxCell>
        <mxCell id="Unxo0jtp3hiDSAeCpCOh-246" value="&lt;b&gt;&lt;font style=&quot;font-size: 16px;&quot;&gt;Temporal Dependency&amp;nbsp;&lt;/font&gt;&lt;/b&gt;" style="text;html=1;align=center;verticalAlign=middle;resizable=0;points=[];autosize=1;strokeColor=none;fillColor=none;" vertex="1" parent="1">
          <mxGeometry x="610" y="497.5" width="200" height="30" as="geometry" />
        </mxCell>
        <mxCell id="Unxo0jtp3hiDSAeCpCOh-247" value="" style="shape=curlyBracket;whiteSpace=wrap;html=1;rounded=1;labelPosition=left;verticalLabelPosition=middle;align=right;verticalAlign=middle;rotation=-90;size=0.5;fontStyle=0;fontSize=22;strokeWidth=3;" vertex="1" parent="1">
          <mxGeometry x="340" y="360" width="20" height="170" as="geometry" />
        </mxCell>
        <mxCell id="Unxo0jtp3hiDSAeCpCOh-248" value="&lt;b&gt;&lt;font style=&quot;font-size: 16px;&quot;&gt;Feature Extraction&lt;/font&gt;&lt;/b&gt;" style="text;html=1;align=center;verticalAlign=middle;resizable=0;points=[];autosize=1;strokeColor=none;fillColor=none;" vertex="1" parent="1">
          <mxGeometry x="270" y="460" width="160" height="30" as="geometry" />
        </mxCell>
        <mxCell id="Unxo0jtp3hiDSAeCpCOh-283" value="&lt;b&gt;&lt;font style=&quot;font-size: 19px;&quot;&gt;Long Term Dependency&lt;/font&gt;&lt;/b&gt;" style="text;html=1;align=center;verticalAlign=middle;resizable=0;points=[];autosize=1;strokeColor=none;fillColor=none;" vertex="1" parent="1">
          <mxGeometry x="590" y="80" width="240" height="40" as="geometry" />
        </mxCell>
        <mxCell id="Unxo0jtp3hiDSAeCpCOh-284" style="edgeStyle=orthogonalEdgeStyle;rounded=0;orthogonalLoop=1;jettySize=auto;html=1;" edge="1" parent="1" source="Unxo0jtp3hiDSAeCpCOh-285" target="Unxo0jtp3hiDSAeCpCOh-239">
          <mxGeometry relative="1" as="geometry" />
        </mxCell>
        <mxCell id="Unxo0jtp3hiDSAeCpCOh-285" value="&lt;b&gt;Concatenation&amp;nbsp;&lt;br&gt;&lt;/b&gt;" style="rounded=1;whiteSpace=wrap;html=1;fontSize=20;rotation=-90;" vertex="1" parent="1">
          <mxGeometry x="890" y="240" width="220" height="60" as="geometry" />
        </mxCell>
        <mxCell id="Unxo0jtp3hiDSAeCpCOh-308" style="edgeStyle=orthogonalEdgeStyle;rounded=0;orthogonalLoop=1;jettySize=auto;html=1;" edge="1" parent="1" source="Unxo0jtp3hiDSAeCpCOh-288" target="Unxo0jtp3hiDSAeCpCOh-285">
          <mxGeometry relative="1" as="geometry" />
        </mxCell>
        <mxCell id="Unxo0jtp3hiDSAeCpCOh-288" value="&lt;font style=&quot;font-size: 20px;&quot;&gt;&lt;b&gt;MHA&lt;/b&gt;&lt;/font&gt;" style="rounded=1;whiteSpace=wrap;html=1;" vertex="1" parent="1">
          <mxGeometry x="590" y="130" width="240" height="60" as="geometry" />
        </mxCell>
        <mxCell id="Unxo0jtp3hiDSAeCpCOh-307" style="edgeStyle=orthogonalEdgeStyle;rounded=0;orthogonalLoop=1;jettySize=auto;html=1;entryX=0.5;entryY=0;entryDx=0;entryDy=0;" edge="1" parent="1" source="Unxo0jtp3hiDSAeCpCOh-289" target="Unxo0jtp3hiDSAeCpCOh-285">
          <mxGeometry relative="1" as="geometry" />
        </mxCell>
        <mxCell id="Unxo0jtp3hiDSAeCpCOh-289" value="&lt;font style=&quot;font-size: 20px;&quot;&gt;&lt;b&gt;MHA&lt;/b&gt;&lt;/font&gt;" style="rounded=1;whiteSpace=wrap;html=1;" vertex="1" parent="1">
          <mxGeometry x="590" y="200" width="240" height="60" as="geometry" />
        </mxCell>
        <mxCell id="Unxo0jtp3hiDSAeCpCOh-306" style="edgeStyle=orthogonalEdgeStyle;rounded=0;orthogonalLoop=1;jettySize=auto;html=1;entryX=0.5;entryY=0;entryDx=0;entryDy=0;" edge="1" parent="1" source="Unxo0jtp3hiDSAeCpCOh-290" target="Unxo0jtp3hiDSAeCpCOh-285">
          <mxGeometry relative="1" as="geometry">
            <mxPoint x="900" y="270" as="targetPoint" />
          </mxGeometry>
        </mxCell>
        <mxCell id="Unxo0jtp3hiDSAeCpCOh-290" value="&lt;font style=&quot;font-size: 20px;&quot;&gt;&lt;b&gt;MHA&lt;/b&gt;&lt;/font&gt;" style="rounded=1;whiteSpace=wrap;html=1;" vertex="1" parent="1">
          <mxGeometry x="590" y="311.25" width="240" height="60" as="geometry" />
        </mxCell>
        <mxCell id="Unxo0jtp3hiDSAeCpCOh-304" style="edgeStyle=orthogonalEdgeStyle;rounded=0;orthogonalLoop=1;jettySize=auto;html=1;entryX=0.5;entryY=0;entryDx=0;entryDy=0;" edge="1" parent="1" source="Unxo0jtp3hiDSAeCpCOh-291" target="Unxo0jtp3hiDSAeCpCOh-285">
          <mxGeometry relative="1" as="geometry" />
        </mxCell>
        <mxCell id="Unxo0jtp3hiDSAeCpCOh-291" value="&lt;font style=&quot;font-size: 20px;&quot;&gt;&lt;b&gt;MHA&lt;/b&gt;&lt;/font&gt;" style="rounded=1;whiteSpace=wrap;html=1;" vertex="1" parent="1">
          <mxGeometry x="590" y="381.25" width="240" height="60" as="geometry" />
        </mxCell>
        <mxCell id="Unxo0jtp3hiDSAeCpCOh-292" value="&lt;b&gt;&lt;font style=&quot;font-size: 19px;&quot;&gt;short Term Dependency&lt;/font&gt;&lt;/b&gt;" style="text;html=1;align=center;verticalAlign=middle;resizable=0;points=[];autosize=1;strokeColor=none;fillColor=none;" vertex="1" parent="1">
          <mxGeometry x="590" y="270" width="240" height="40" as="geometry" />
        </mxCell>
        <mxCell id="Unxo0jtp3hiDSAeCpCOh-297" style="edgeStyle=orthogonalEdgeStyle;rounded=0;orthogonalLoop=1;jettySize=auto;html=1;entryX=0;entryY=0.5;entryDx=0;entryDy=0;" edge="1" parent="1" source="Unxo0jtp3hiDSAeCpCOh-293" target="Unxo0jtp3hiDSAeCpCOh-289">
          <mxGeometry relative="1" as="geometry" />
        </mxCell>
        <mxCell id="Unxo0jtp3hiDSAeCpCOh-298" style="edgeStyle=orthogonalEdgeStyle;rounded=0;orthogonalLoop=1;jettySize=auto;html=1;" edge="1" parent="1" source="Unxo0jtp3hiDSAeCpCOh-293" target="Unxo0jtp3hiDSAeCpCOh-290">
          <mxGeometry relative="1" as="geometry" />
        </mxCell>
        <mxCell id="Unxo0jtp3hiDSAeCpCOh-293" value="&lt;b&gt;Invert&lt;/b&gt;" style="rounded=1;whiteSpace=wrap;html=1;fontSize=20;rotation=-90;" vertex="1" parent="1">
          <mxGeometry x="430" y="260" width="160" height="60" as="geometry" />
        </mxCell>
      </root>
    </mxGraphModel>
  </diagram>
</mxfile>
